<mxfile host="app.diagrams.net" modified="2023-02-28T15:22:05.862Z" agent="5.0 (Windows NT 10.0; Win64; x64) AppleWebKit/537.36 (KHTML, like Gecko) Chrome/112.0.0.0 Safari/537.36" etag="wma3m-lSBtqnIpwJnOu-" version="20.8.23" type="github">
  <diagram id="C5RBs43oDa-KdzZeNtuy" name="Page-1">
    <mxGraphModel dx="1434" dy="764" grid="0" gridSize="10" guides="1" tooltips="1" connect="1" arrows="1" fold="1" page="1" pageScale="1" pageWidth="827" pageHeight="1169" math="0" shadow="0">
      <root>
        <mxCell id="WIyWlLk6GJQsqaUBKTNV-0" />
        <mxCell id="WIyWlLk6GJQsqaUBKTNV-1" parent="WIyWlLk6GJQsqaUBKTNV-0" />
        <mxCell id="vmh0bnFjDrF1hgYEoPJp-18" style="edgeStyle=orthogonalEdgeStyle;rounded=0;orthogonalLoop=1;jettySize=auto;html=1;exitX=0.5;exitY=1;exitDx=0;exitDy=0;entryX=0.5;entryY=0;entryDx=0;entryDy=0;" edge="1" parent="WIyWlLk6GJQsqaUBKTNV-1" source="vmh0bnFjDrF1hgYEoPJp-19" target="vmh0bnFjDrF1hgYEoPJp-25">
          <mxGeometry relative="1" as="geometry" />
        </mxCell>
        <mxCell id="vmh0bnFjDrF1hgYEoPJp-19" value="定义设计域，设置约束及载荷" style="rounded=1;whiteSpace=wrap;html=1;fontSize=12;glass=0;strokeWidth=1;shadow=0;fillColor=#fff2cc;strokeColor=#d6b656;gradientColor=#ffd966;" vertex="1" parent="WIyWlLk6GJQsqaUBKTNV-1">
          <mxGeometry x="352" y="28" width="120" height="40" as="geometry" />
        </mxCell>
        <mxCell id="vmh0bnFjDrF1hgYEoPJp-20" style="edgeStyle=orthogonalEdgeStyle;rounded=0;orthogonalLoop=1;jettySize=auto;html=1;entryX=1;entryY=0.5;entryDx=0;entryDy=0;exitX=1;exitY=0.5;exitDx=0;exitDy=0;" edge="1" parent="WIyWlLk6GJQsqaUBKTNV-1" source="vmh0bnFjDrF1hgYEoPJp-22" target="vmh0bnFjDrF1hgYEoPJp-29">
          <mxGeometry relative="1" as="geometry">
            <Array as="points">
              <mxPoint x="612" y="451" />
              <mxPoint x="612" y="228" />
            </Array>
          </mxGeometry>
        </mxCell>
        <mxCell id="vmh0bnFjDrF1hgYEoPJp-21" style="edgeStyle=orthogonalEdgeStyle;rounded=0;orthogonalLoop=1;jettySize=auto;html=1;exitX=0.5;exitY=1;exitDx=0;exitDy=0;entryX=0.5;entryY=0;entryDx=0;entryDy=0;" edge="1" parent="WIyWlLk6GJQsqaUBKTNV-1" source="vmh0bnFjDrF1hgYEoPJp-22" target="vmh0bnFjDrF1hgYEoPJp-23">
          <mxGeometry relative="1" as="geometry" />
        </mxCell>
        <mxCell id="vmh0bnFjDrF1hgYEoPJp-22" value="柔度变化量是否满足公式要求" style="rhombus;whiteSpace=wrap;html=1;shadow=0;fontFamily=Helvetica;fontSize=12;align=center;strokeWidth=1;spacing=6;spacingTop=-4;fillColor=#fff2cc;gradientColor=#ffd966;strokeColor=#d6b656;" vertex="1" parent="WIyWlLk6GJQsqaUBKTNV-1">
          <mxGeometry x="312.63" y="413" width="198.75" height="80" as="geometry" />
        </mxCell>
        <mxCell id="vmh0bnFjDrF1hgYEoPJp-39" style="edgeStyle=orthogonalEdgeStyle;rounded=0;orthogonalLoop=1;jettySize=auto;html=1;entryX=1;entryY=0.5;entryDx=0;entryDy=0;" edge="1" parent="WIyWlLk6GJQsqaUBKTNV-1" source="vmh0bnFjDrF1hgYEoPJp-23" target="vmh0bnFjDrF1hgYEoPJp-38">
          <mxGeometry relative="1" as="geometry" />
        </mxCell>
        <mxCell id="vmh0bnFjDrF1hgYEoPJp-23" value="输出设计变量" style="rounded=1;whiteSpace=wrap;html=1;fontSize=12;glass=0;strokeWidth=1;shadow=0;fillColor=#fff2cc;gradientColor=#ffd966;strokeColor=#d6b656;" vertex="1" parent="WIyWlLk6GJQsqaUBKTNV-1">
          <mxGeometry x="352" y="525" width="120" height="40" as="geometry" />
        </mxCell>
        <mxCell id="vmh0bnFjDrF1hgYEoPJp-24" style="edgeStyle=orthogonalEdgeStyle;rounded=0;orthogonalLoop=1;jettySize=auto;html=1;exitX=0.5;exitY=1;exitDx=0;exitDy=0;entryX=0.5;entryY=0;entryDx=0;entryDy=0;" edge="1" parent="WIyWlLk6GJQsqaUBKTNV-1" source="vmh0bnFjDrF1hgYEoPJp-25" target="vmh0bnFjDrF1hgYEoPJp-27">
          <mxGeometry relative="1" as="geometry" />
        </mxCell>
        <mxCell id="vmh0bnFjDrF1hgYEoPJp-25" value="建立有限元模型" style="rounded=1;whiteSpace=wrap;html=1;fontSize=12;glass=0;strokeWidth=1;shadow=0;fillColor=#fff2cc;gradientColor=#ffd966;strokeColor=#d6b656;" vertex="1" parent="WIyWlLk6GJQsqaUBKTNV-1">
          <mxGeometry x="352" y="88" width="120" height="40" as="geometry" />
        </mxCell>
        <mxCell id="vmh0bnFjDrF1hgYEoPJp-26" style="edgeStyle=orthogonalEdgeStyle;rounded=0;orthogonalLoop=1;jettySize=auto;html=1;exitX=0.5;exitY=1;exitDx=0;exitDy=0;entryX=0.5;entryY=0;entryDx=0;entryDy=0;" edge="1" parent="WIyWlLk6GJQsqaUBKTNV-1" source="vmh0bnFjDrF1hgYEoPJp-27" target="vmh0bnFjDrF1hgYEoPJp-29">
          <mxGeometry relative="1" as="geometry" />
        </mxCell>
        <mxCell id="vmh0bnFjDrF1hgYEoPJp-27" value="设计变量的初始化" style="rounded=1;whiteSpace=wrap;html=1;fontSize=12;glass=0;strokeWidth=1;shadow=0;fillColor=#fff2cc;gradientColor=#ffd966;strokeColor=#d6b656;" vertex="1" parent="WIyWlLk6GJQsqaUBKTNV-1">
          <mxGeometry x="352" y="148" width="120" height="40" as="geometry" />
        </mxCell>
        <mxCell id="vmh0bnFjDrF1hgYEoPJp-28" style="edgeStyle=orthogonalEdgeStyle;rounded=0;orthogonalLoop=1;jettySize=auto;html=1;exitX=0.5;exitY=1;exitDx=0;exitDy=0;" edge="1" parent="WIyWlLk6GJQsqaUBKTNV-1" source="vmh0bnFjDrF1hgYEoPJp-29" target="vmh0bnFjDrF1hgYEoPJp-31">
          <mxGeometry relative="1" as="geometry" />
        </mxCell>
        <mxCell id="vmh0bnFjDrF1hgYEoPJp-29" value="进行有限元分析" style="rounded=1;whiteSpace=wrap;html=1;fontSize=12;glass=0;strokeWidth=1;shadow=0;fillColor=#fff2cc;gradientColor=#ffd966;strokeColor=#d6b656;" vertex="1" parent="WIyWlLk6GJQsqaUBKTNV-1">
          <mxGeometry x="352" y="208" width="120" height="40" as="geometry" />
        </mxCell>
        <mxCell id="vmh0bnFjDrF1hgYEoPJp-30" style="edgeStyle=orthogonalEdgeStyle;rounded=0;orthogonalLoop=1;jettySize=auto;html=1;exitX=0.5;exitY=1;exitDx=0;exitDy=0;" edge="1" parent="WIyWlLk6GJQsqaUBKTNV-1" source="vmh0bnFjDrF1hgYEoPJp-31">
          <mxGeometry relative="1" as="geometry">
            <mxPoint x="412" y="343" as="targetPoint" />
          </mxGeometry>
        </mxCell>
        <mxCell id="vmh0bnFjDrF1hgYEoPJp-31" value="计算结构柔度、灵敏度、进行网格过滤" style="rounded=1;whiteSpace=wrap;html=1;fontSize=12;glass=0;strokeWidth=1;shadow=0;fillColor=#fff2cc;gradientColor=#ffd966;strokeColor=#d6b656;" vertex="1" parent="WIyWlLk6GJQsqaUBKTNV-1">
          <mxGeometry x="352" y="276" width="120" height="40" as="geometry" />
        </mxCell>
        <mxCell id="vmh0bnFjDrF1hgYEoPJp-32" style="edgeStyle=orthogonalEdgeStyle;rounded=0;orthogonalLoop=1;jettySize=auto;html=1;exitX=0.5;exitY=1;exitDx=0;exitDy=0;entryX=0.5;entryY=0;entryDx=0;entryDy=0;" edge="1" parent="WIyWlLk6GJQsqaUBKTNV-1" source="vmh0bnFjDrF1hgYEoPJp-33" target="vmh0bnFjDrF1hgYEoPJp-22">
          <mxGeometry relative="1" as="geometry" />
        </mxCell>
        <mxCell id="vmh0bnFjDrF1hgYEoPJp-33" value="OC优化准则进行设计变量优化" style="rounded=1;whiteSpace=wrap;html=1;fontSize=12;glass=0;strokeWidth=1;shadow=0;fillColor=#fff2cc;gradientColor=#ffd966;strokeColor=#d6b656;" vertex="1" parent="WIyWlLk6GJQsqaUBKTNV-1">
          <mxGeometry x="352" y="343" width="120" height="40" as="geometry" />
        </mxCell>
        <mxCell id="vmh0bnFjDrF1hgYEoPJp-34" value="不满足" style="text;strokeColor=none;align=center;fillColor=none;html=1;verticalAlign=middle;whiteSpace=wrap;rounded=0;" vertex="1" parent="WIyWlLk6GJQsqaUBKTNV-1">
          <mxGeometry x="511" y="421" width="60" height="30" as="geometry" />
        </mxCell>
        <mxCell id="vmh0bnFjDrF1hgYEoPJp-35" value="满足" style="text;strokeColor=none;align=center;fillColor=none;html=1;verticalAlign=middle;whiteSpace=wrap;rounded=0;" vertex="1" parent="WIyWlLk6GJQsqaUBKTNV-1">
          <mxGeometry x="419" y="493" width="60" height="30" as="geometry" />
        </mxCell>
        <mxCell id="vmh0bnFjDrF1hgYEoPJp-42" style="edgeStyle=orthogonalEdgeStyle;rounded=0;orthogonalLoop=1;jettySize=auto;html=1;exitX=0.5;exitY=1;exitDx=0;exitDy=0;entryX=0.5;entryY=0;entryDx=0;entryDy=0;" edge="1" parent="WIyWlLk6GJQsqaUBKTNV-1" source="vmh0bnFjDrF1hgYEoPJp-38" target="vmh0bnFjDrF1hgYEoPJp-41">
          <mxGeometry relative="1" as="geometry" />
        </mxCell>
        <mxCell id="vmh0bnFjDrF1hgYEoPJp-38" value="对设计变量进行有限元分析" style="rounded=1;whiteSpace=wrap;html=1;fontSize=12;glass=0;strokeWidth=1;shadow=0;fillColor=#fff2cc;gradientColor=#ffd966;strokeColor=#d6b656;" vertex="1" parent="WIyWlLk6GJQsqaUBKTNV-1">
          <mxGeometry x="113" y="51" width="120" height="40" as="geometry" />
        </mxCell>
        <mxCell id="vmh0bnFjDrF1hgYEoPJp-47" value="" style="edgeStyle=orthogonalEdgeStyle;rounded=0;orthogonalLoop=1;jettySize=auto;html=1;" edge="1" parent="WIyWlLk6GJQsqaUBKTNV-1" source="vmh0bnFjDrF1hgYEoPJp-41" target="vmh0bnFjDrF1hgYEoPJp-46">
          <mxGeometry relative="1" as="geometry" />
        </mxCell>
        <mxCell id="vmh0bnFjDrF1hgYEoPJp-41" value="提取各单元应变能" style="rounded=1;whiteSpace=wrap;html=1;fontSize=12;glass=0;strokeWidth=1;shadow=0;fillColor=#fff2cc;gradientColor=#ffd966;strokeColor=#d6b656;" vertex="1" parent="WIyWlLk6GJQsqaUBKTNV-1">
          <mxGeometry x="113" y="126" width="120" height="40" as="geometry" />
        </mxCell>
        <mxCell id="vmh0bnFjDrF1hgYEoPJp-53" value="" style="edgeStyle=orthogonalEdgeStyle;rounded=0;orthogonalLoop=1;jettySize=auto;html=1;" edge="1" parent="WIyWlLk6GJQsqaUBKTNV-1" source="vmh0bnFjDrF1hgYEoPJp-43" target="vmh0bnFjDrF1hgYEoPJp-52">
          <mxGeometry relative="1" as="geometry" />
        </mxCell>
        <mxCell id="vmh0bnFjDrF1hgYEoPJp-43" value="根据灵敏度更新设计变量完成单元增删" style="rounded=1;whiteSpace=wrap;html=1;fontSize=12;glass=0;strokeWidth=1;shadow=0;fillColor=#fff2cc;gradientColor=#ffd966;strokeColor=#d6b656;" vertex="1" parent="WIyWlLk6GJQsqaUBKTNV-1">
          <mxGeometry x="113" y="354" width="120" height="40" as="geometry" />
        </mxCell>
        <mxCell id="vmh0bnFjDrF1hgYEoPJp-50" value="" style="edgeStyle=orthogonalEdgeStyle;rounded=0;orthogonalLoop=1;jettySize=auto;html=1;" edge="1" parent="WIyWlLk6GJQsqaUBKTNV-1" source="vmh0bnFjDrF1hgYEoPJp-46" target="vmh0bnFjDrF1hgYEoPJp-48">
          <mxGeometry relative="1" as="geometry" />
        </mxCell>
        <mxCell id="vmh0bnFjDrF1hgYEoPJp-46" value="根据应变能计算单元灵敏度" style="rounded=1;whiteSpace=wrap;html=1;fontSize=12;glass=0;strokeWidth=1;shadow=0;fillColor=#fff2cc;gradientColor=#ffd966;strokeColor=#d6b656;" vertex="1" parent="WIyWlLk6GJQsqaUBKTNV-1">
          <mxGeometry x="113" y="198" width="120" height="40" as="geometry" />
        </mxCell>
        <mxCell id="vmh0bnFjDrF1hgYEoPJp-51" value="" style="edgeStyle=orthogonalEdgeStyle;rounded=0;orthogonalLoop=1;jettySize=auto;html=1;" edge="1" parent="WIyWlLk6GJQsqaUBKTNV-1" source="vmh0bnFjDrF1hgYEoPJp-48" target="vmh0bnFjDrF1hgYEoPJp-43">
          <mxGeometry relative="1" as="geometry" />
        </mxCell>
        <mxCell id="vmh0bnFjDrF1hgYEoPJp-48" value="过滤、平均灵敏度值" style="rounded=1;whiteSpace=wrap;html=1;fontSize=12;glass=0;strokeWidth=1;shadow=0;fillColor=#fff2cc;gradientColor=#ffd966;strokeColor=#d6b656;" vertex="1" parent="WIyWlLk6GJQsqaUBKTNV-1">
          <mxGeometry x="113" y="276" width="120" height="40" as="geometry" />
        </mxCell>
        <mxCell id="vmh0bnFjDrF1hgYEoPJp-54" style="edgeStyle=orthogonalEdgeStyle;rounded=0;orthogonalLoop=1;jettySize=auto;html=1;entryX=0;entryY=0.5;entryDx=0;entryDy=0;" edge="1" parent="WIyWlLk6GJQsqaUBKTNV-1" source="vmh0bnFjDrF1hgYEoPJp-52" target="vmh0bnFjDrF1hgYEoPJp-38">
          <mxGeometry relative="1" as="geometry">
            <Array as="points">
              <mxPoint x="33" y="461" />
              <mxPoint x="33" y="71" />
            </Array>
          </mxGeometry>
        </mxCell>
        <mxCell id="vmh0bnFjDrF1hgYEoPJp-57" value="" style="edgeStyle=orthogonalEdgeStyle;rounded=0;orthogonalLoop=1;jettySize=auto;html=1;" edge="1" parent="WIyWlLk6GJQsqaUBKTNV-1" source="vmh0bnFjDrF1hgYEoPJp-52" target="vmh0bnFjDrF1hgYEoPJp-56">
          <mxGeometry relative="1" as="geometry" />
        </mxCell>
        <mxCell id="vmh0bnFjDrF1hgYEoPJp-52" value="是否满足收敛条件" style="rhombus;whiteSpace=wrap;html=1;shadow=0;fontFamily=Helvetica;fontSize=12;align=center;strokeWidth=1;spacing=6;spacingTop=-4;fillColor=#fff2cc;gradientColor=#ffd966;strokeColor=#d6b656;" vertex="1" parent="WIyWlLk6GJQsqaUBKTNV-1">
          <mxGeometry x="73.63" y="421" width="198.75" height="80" as="geometry" />
        </mxCell>
        <mxCell id="vmh0bnFjDrF1hgYEoPJp-55" value="不满足" style="text;strokeColor=none;align=center;fillColor=none;html=1;verticalAlign=middle;whiteSpace=wrap;rounded=0;" vertex="1" parent="WIyWlLk6GJQsqaUBKTNV-1">
          <mxGeometry x="28" y="434" width="60" height="30" as="geometry" />
        </mxCell>
        <mxCell id="vmh0bnFjDrF1hgYEoPJp-56" value="输出拓扑优化结果" style="rounded=1;whiteSpace=wrap;html=1;fontSize=12;glass=0;strokeWidth=1;shadow=0;fillColor=#fff2cc;gradientColor=#ffd966;strokeColor=#d6b656;" vertex="1" parent="WIyWlLk6GJQsqaUBKTNV-1">
          <mxGeometry x="113.00999999999999" y="528" width="120" height="40" as="geometry" />
        </mxCell>
        <mxCell id="vmh0bnFjDrF1hgYEoPJp-58" value="满足" style="text;strokeColor=none;align=center;fillColor=none;html=1;verticalAlign=middle;whiteSpace=wrap;rounded=0;" vertex="1" parent="WIyWlLk6GJQsqaUBKTNV-1">
          <mxGeometry x="168" y="498" width="60" height="30" as="geometry" />
        </mxCell>
      </root>
    </mxGraphModel>
  </diagram>
</mxfile>
